<mxfile host="65bd71144e">
    <diagram id="DKFJayGLP2oGCjJ00Zy6" name="PÃ¡gina-1">
        <mxGraphModel dx="3034" dy="1595" grid="1" gridSize="10" guides="1" tooltips="1" connect="1" arrows="1" fold="1" page="1" pageScale="1" pageWidth="1169" pageHeight="827" math="0" shadow="0">
            <root>
                <mxCell id="0"/>
                <mxCell id="1" parent="0"/>
                <mxCell id="2" value="Cliente" style="swimlane;fontStyle=0;childLayout=stackLayout;horizontal=1;startSize=26;fillColor=none;horizontalStack=0;resizeParent=1;resizeParentMax=0;resizeLast=0;collapsible=1;marginBottom=0;" parent="1" vertex="1">
                    <mxGeometry x="-10" y="280" width="170" height="364" as="geometry"/>
                </mxCell>
                <mxCell id="3" value="_id: ObjectId" style="text;strokeColor=none;fillColor=none;align=left;verticalAlign=top;spacingLeft=4;spacingRight=4;overflow=hidden;rotatable=0;points=[[0,0.5],[1,0.5]];portConstraint=eastwest;" parent="2" vertex="1">
                    <mxGeometry y="26" width="170" height="26" as="geometry"/>
                </mxCell>
                <mxCell id="4" value="nome: String" style="text;strokeColor=none;fillColor=none;align=left;verticalAlign=top;spacingLeft=4;spacingRight=4;overflow=hidden;rotatable=0;points=[[0,0.5],[1,0.5]];portConstraint=eastwest;" parent="2" vertex="1">
                    <mxGeometry y="52" width="170" height="26" as="geometry"/>
                </mxCell>
                <mxCell id="38" value="cpf: String" style="text;strokeColor=none;fillColor=none;align=left;verticalAlign=top;spacingLeft=4;spacingRight=4;overflow=hidden;rotatable=0;points=[[0,0.5],[1,0.5]];portConstraint=eastwest;" parent="2" vertex="1">
                    <mxGeometry y="78" width="170" height="26" as="geometry"/>
                </mxCell>
                <mxCell id="39" value="data_nascimento: DateTime?" style="text;strokeColor=none;fillColor=none;align=left;verticalAlign=top;spacingLeft=4;spacingRight=4;overflow=hidden;rotatable=0;points=[[0,0.5],[1,0.5]];portConstraint=eastwest;" parent="2" vertex="1">
                    <mxGeometry y="104" width="170" height="26" as="geometry"/>
                </mxCell>
                <mxCell id="40" value="email: String" style="text;strokeColor=none;fillColor=none;align=left;verticalAlign=top;spacingLeft=4;spacingRight=4;overflow=hidden;rotatable=0;points=[[0,0.5],[1,0.5]];portConstraint=eastwest;" parent="2" vertex="1">
                    <mxGeometry y="130" width="170" height="26" as="geometry"/>
                </mxCell>
                <mxCell id="41" value="logradouro: String" style="text;strokeColor=none;fillColor=none;align=left;verticalAlign=top;spacingLeft=4;spacingRight=4;overflow=hidden;rotatable=0;points=[[0,0.5],[1,0.5]];portConstraint=eastwest;" parent="2" vertex="1">
                    <mxGeometry y="156" width="170" height="26" as="geometry"/>
                </mxCell>
                <mxCell id="42" value="num_casa: String" style="text;strokeColor=none;fillColor=none;align=left;verticalAlign=top;spacingLeft=4;spacingRight=4;overflow=hidden;rotatable=0;points=[[0,0.5],[1,0.5]];portConstraint=eastwest;" parent="2" vertex="1">
                    <mxGeometry y="182" width="170" height="26" as="geometry"/>
                </mxCell>
                <mxCell id="43" value="complemento: String?" style="text;strokeColor=none;fillColor=none;align=left;verticalAlign=top;spacingLeft=4;spacingRight=4;overflow=hidden;rotatable=0;points=[[0,0.5],[1,0.5]];portConstraint=eastwest;" parent="2" vertex="1">
                    <mxGeometry y="208" width="170" height="26" as="geometry"/>
                </mxCell>
                <mxCell id="44" value="bairro: String" style="text;strokeColor=none;fillColor=none;align=left;verticalAlign=top;spacingLeft=4;spacingRight=4;overflow=hidden;rotatable=0;points=[[0,0.5],[1,0.5]];portConstraint=eastwest;" parent="2" vertex="1">
                    <mxGeometry y="234" width="170" height="26" as="geometry"/>
                </mxCell>
                <mxCell id="45" value="municipio: String" style="text;strokeColor=none;fillColor=none;align=left;verticalAlign=top;spacingLeft=4;spacingRight=4;overflow=hidden;rotatable=0;points=[[0,0.5],[1,0.5]];portConstraint=eastwest;" parent="2" vertex="1">
                    <mxGeometry y="260" width="170" height="26" as="geometry"/>
                </mxCell>
                <mxCell id="46" value="uf: String" style="text;strokeColor=none;fillColor=none;align=left;verticalAlign=top;spacingLeft=4;spacingRight=4;overflow=hidden;rotatable=0;points=[[0,0.5],[1,0.5]];portConstraint=eastwest;" parent="2" vertex="1">
                    <mxGeometry y="286" width="170" height="26" as="geometry"/>
                </mxCell>
                <mxCell id="47" value="cep: String" style="text;strokeColor=none;fillColor=none;align=left;verticalAlign=top;spacingLeft=4;spacingRight=4;overflow=hidden;rotatable=0;points=[[0,0.5],[1,0.5]];portConstraint=eastwest;" parent="2" vertex="1">
                    <mxGeometry y="312" width="170" height="26" as="geometry"/>
                </mxCell>
                <mxCell id="5" value="celular: String" style="text;strokeColor=none;fillColor=none;align=left;verticalAlign=top;spacingLeft=4;spacingRight=4;overflow=hidden;rotatable=0;points=[[0,0.5],[1,0.5]];portConstraint=eastwest;" parent="2" vertex="1">
                    <mxGeometry y="338" width="170" height="26" as="geometry"/>
                </mxCell>
                <mxCell id="6" value="Produto" style="swimlane;fontStyle=0;childLayout=stackLayout;horizontal=1;startSize=26;fillColor=none;horizontalStack=0;resizeParent=1;resizeParentMax=0;resizeLast=0;collapsible=1;marginBottom=0;" parent="1" vertex="1">
                    <mxGeometry x="300" y="210" width="140" height="234" as="geometry"/>
                </mxCell>
                <mxCell id="7" value="_id: ObjectId" style="text;strokeColor=none;fillColor=none;align=left;verticalAlign=top;spacingLeft=4;spacingRight=4;overflow=hidden;rotatable=0;points=[[0,0.5],[1,0.5]];portConstraint=eastwest;" parent="6" vertex="1">
                    <mxGeometry y="26" width="140" height="26" as="geometry"/>
                </mxCell>
                <mxCell id="8" value="nome: String" style="text;strokeColor=none;fillColor=none;align=left;verticalAlign=top;spacingLeft=4;spacingRight=4;overflow=hidden;rotatable=0;points=[[0,0.5],[1,0.5]];portConstraint=eastwest;" parent="6" vertex="1">
                    <mxGeometry y="52" width="140" height="26" as="geometry"/>
                </mxCell>
                <mxCell id="48" value="marca: String" style="text;strokeColor=none;fillColor=none;align=left;verticalAlign=top;spacingLeft=4;spacingRight=4;overflow=hidden;rotatable=0;points=[[0,0.5],[1,0.5]];portConstraint=eastwest;" parent="6" vertex="1">
                    <mxGeometry y="78" width="140" height="26" as="geometry"/>
                </mxCell>
                <mxCell id="49" value="especificacao: String?" style="text;strokeColor=none;fillColor=none;align=left;verticalAlign=top;spacingLeft=4;spacingRight=4;overflow=hidden;rotatable=0;points=[[0,0.5],[1,0.5]];portConstraint=eastwest;" parent="6" vertex="1">
                    <mxGeometry y="104" width="140" height="26" as="geometry"/>
                </mxCell>
                <mxCell id="50" value="unidade_medida: String" style="text;strokeColor=none;fillColor=none;align=left;verticalAlign=top;spacingLeft=4;spacingRight=4;overflow=hidden;rotatable=0;points=[[0,0.5],[1,0.5]];portConstraint=eastwest;" parent="6" vertex="1">
                    <mxGeometry y="130" width="140" height="26" as="geometry"/>
                </mxCell>
                <mxCell id="51" value="preco_unitario: Number" style="text;strokeColor=none;fillColor=none;align=left;verticalAlign=top;spacingLeft=4;spacingRight=4;overflow=hidden;rotatable=0;points=[[0,0.5],[1,0.5]];portConstraint=eastwest;" parent="6" vertex="1">
                    <mxGeometry y="156" width="140" height="26" as="geometry"/>
                </mxCell>
                <mxCell id="55" value="qtd_estoque: Number" style="text;strokeColor=none;fillColor=none;align=left;verticalAlign=top;spacingLeft=4;spacingRight=4;overflow=hidden;rotatable=0;points=[[0,0.5],[1,0.5]];portConstraint=eastwest;" parent="6" vertex="1">
                    <mxGeometry y="182" width="140" height="26" as="geometry"/>
                </mxCell>
                <mxCell id="9" value="categoria: Categoria" style="text;strokeColor=none;fillColor=none;align=left;verticalAlign=top;spacingLeft=4;spacingRight=4;overflow=hidden;rotatable=0;points=[[0,0.5],[1,0.5]];portConstraint=eastwest;" parent="6" vertex="1">
                    <mxGeometry y="208" width="140" height="26" as="geometry"/>
                </mxCell>
                <mxCell id="10" value="Categoria" style="swimlane;fontStyle=0;childLayout=stackLayout;horizontal=1;startSize=26;fillColor=none;horizontalStack=0;resizeParent=1;resizeParentMax=0;resizeLast=0;collapsible=1;marginBottom=0;" parent="1" vertex="1">
                    <mxGeometry x="300" y="40" width="140" height="78" as="geometry"/>
                </mxCell>
                <mxCell id="11" value="_id: ObjectId" style="text;strokeColor=none;fillColor=none;align=left;verticalAlign=top;spacingLeft=4;spacingRight=4;overflow=hidden;rotatable=0;points=[[0,0.5],[1,0.5]];portConstraint=eastwest;" parent="10" vertex="1">
                    <mxGeometry y="26" width="140" height="26" as="geometry"/>
                </mxCell>
                <mxCell id="12" value="descricao: String" style="text;strokeColor=none;fillColor=none;align=left;verticalAlign=top;spacingLeft=4;spacingRight=4;overflow=hidden;rotatable=0;points=[[0,0.5],[1,0.5]];portConstraint=eastwest;" parent="10" vertex="1">
                    <mxGeometry y="52" width="140" height="26" as="geometry"/>
                </mxCell>
                <mxCell id="_1IkSQqu3qJlrTT_pfzR-88" style="edgeStyle=none;html=1;exitX=0.75;exitY=0;exitDx=0;exitDy=0;entryX=0.25;entryY=0;entryDx=0;entryDy=0;" edge="1" parent="1" source="14" target="_1IkSQqu3qJlrTT_pfzR-81">
                    <mxGeometry relative="1" as="geometry">
                        <Array as="points">
                            <mxPoint x="275" y="480"/>
                            <mxPoint x="400" y="480"/>
                        </Array>
                    </mxGeometry>
                </mxCell>
                <mxCell id="14" value="Venda" style="swimlane;fontStyle=0;childLayout=stackLayout;horizontal=1;startSize=26;fillColor=none;horizontalStack=0;resizeParent=1;resizeParentMax=0;resizeLast=0;collapsible=1;marginBottom=0;" parent="1" vertex="1">
                    <mxGeometry x="170" y="560" width="140" height="182" as="geometry"/>
                </mxCell>
                <mxCell id="15" value="_id: ObjectId&#10;" style="text;strokeColor=none;fillColor=none;align=left;verticalAlign=top;spacingLeft=4;spacingRight=4;overflow=hidden;rotatable=0;points=[[0,0.5],[1,0.5]];portConstraint=eastwest;" parent="14" vertex="1">
                    <mxGeometry y="26" width="140" height="26" as="geometry"/>
                </mxCell>
                <mxCell id="16" value="num_venda: Number" style="text;strokeColor=none;fillColor=none;align=left;verticalAlign=top;spacingLeft=4;spacingRight=4;overflow=hidden;rotatable=0;points=[[0,0.5],[1,0.5]];portConstraint=eastwest;" parent="14" vertex="1">
                    <mxGeometry y="52" width="140" height="26" as="geometry"/>
                </mxCell>
                <mxCell id="17" value="data_hora: DateTime" style="text;strokeColor=none;fillColor=none;align=left;verticalAlign=top;spacingLeft=4;spacingRight=4;overflow=hidden;rotatable=0;points=[[0,0.5],[1,0.5]];portConstraint=eastwest;" parent="14" vertex="1">
                    <mxGeometry y="78" width="140" height="26" as="geometry"/>
                </mxCell>
                <mxCell id="53" value="itens: [Produto]" style="text;strokeColor=none;fillColor=none;align=left;verticalAlign=top;spacingLeft=4;spacingRight=4;overflow=hidden;rotatable=0;points=[[0,0.5],[1,0.5]];portConstraint=eastwest;" parent="14" vertex="1">
                    <mxGeometry y="104" width="140" height="26" as="geometry"/>
                </mxCell>
                <mxCell id="54" value="cliente: Cliente" style="text;strokeColor=none;fillColor=none;align=left;verticalAlign=top;spacingLeft=4;spacingRight=4;overflow=hidden;rotatable=0;points=[[0,0.5],[1,0.5]];portConstraint=eastwest;" parent="14" vertex="1">
                    <mxGeometry y="130" width="140" height="26" as="geometry"/>
                </mxCell>
                <mxCell id="_1IkSQqu3qJlrTT_pfzR-80" value="num_venda: Number" style="text;strokeColor=none;fillColor=none;align=left;verticalAlign=top;spacingLeft=4;spacingRight=4;overflow=hidden;rotatable=0;points=[[0,0.5],[1,0.5]];portConstraint=eastwest;" vertex="1" parent="14">
                    <mxGeometry y="156" width="140" height="26" as="geometry"/>
                </mxCell>
                <mxCell id="18" value="Fornecedor" style="swimlane;fontStyle=0;childLayout=stackLayout;horizontal=1;startSize=26;fillColor=none;horizontalStack=0;resizeParent=1;resizeParentMax=0;resizeLast=0;collapsible=1;marginBottom=0;" parent="1" vertex="1">
                    <mxGeometry x="560" y="210" width="140" height="364" as="geometry"/>
                </mxCell>
                <mxCell id="19" value="_id: ObjectId" style="text;strokeColor=none;fillColor=none;align=left;verticalAlign=top;spacingLeft=4;spacingRight=4;overflow=hidden;rotatable=0;points=[[0,0.5],[1,0.5]];portConstraint=eastwest;" parent="18" vertex="1">
                    <mxGeometry y="26" width="140" height="26" as="geometry"/>
                </mxCell>
                <mxCell id="20" value="razao_social: String" style="text;strokeColor=none;fillColor=none;align=left;verticalAlign=top;spacingLeft=4;spacingRight=4;overflow=hidden;rotatable=0;points=[[0,0.5],[1,0.5]];portConstraint=eastwest;" parent="18" vertex="1">
                    <mxGeometry y="52" width="140" height="26" as="geometry"/>
                </mxCell>
                <mxCell id="21" value="nome_fantasia: String?&#10;" style="text;strokeColor=none;fillColor=none;align=left;verticalAlign=top;spacingLeft=4;spacingRight=4;overflow=hidden;rotatable=0;points=[[0,0.5],[1,0.5]];portConstraint=eastwest;" parent="18" vertex="1">
                    <mxGeometry y="78" width="140" height="26" as="geometry"/>
                </mxCell>
                <mxCell id="56" value="cnpj: String" style="text;strokeColor=none;fillColor=none;align=left;verticalAlign=top;spacingLeft=4;spacingRight=4;overflow=hidden;rotatable=0;points=[[0,0.5],[1,0.5]];portConstraint=eastwest;" parent="18" vertex="1">
                    <mxGeometry y="104" width="140" height="26" as="geometry"/>
                </mxCell>
                <mxCell id="65" value="email: String" style="text;strokeColor=none;fillColor=none;align=left;verticalAlign=top;spacingLeft=4;spacingRight=4;overflow=hidden;rotatable=0;points=[[0,0.5],[1,0.5]];portConstraint=eastwest;" parent="18" vertex="1">
                    <mxGeometry y="130" width="140" height="26" as="geometry"/>
                </mxCell>
                <mxCell id="66" value="logradouro: String" style="text;strokeColor=none;fillColor=none;align=left;verticalAlign=top;spacingLeft=4;spacingRight=4;overflow=hidden;rotatable=0;points=[[0,0.5],[1,0.5]];portConstraint=eastwest;" parent="18" vertex="1">
                    <mxGeometry y="156" width="140" height="26" as="geometry"/>
                </mxCell>
                <mxCell id="67" value="num_casa: String" style="text;strokeColor=none;fillColor=none;align=left;verticalAlign=top;spacingLeft=4;spacingRight=4;overflow=hidden;rotatable=0;points=[[0,0.5],[1,0.5]];portConstraint=eastwest;" parent="18" vertex="1">
                    <mxGeometry y="182" width="140" height="26" as="geometry"/>
                </mxCell>
                <mxCell id="68" value="complemento: String?" style="text;strokeColor=none;fillColor=none;align=left;verticalAlign=top;spacingLeft=4;spacingRight=4;overflow=hidden;rotatable=0;points=[[0,0.5],[1,0.5]];portConstraint=eastwest;" parent="18" vertex="1">
                    <mxGeometry y="208" width="140" height="26" as="geometry"/>
                </mxCell>
                <mxCell id="69" value="bairro: String" style="text;strokeColor=none;fillColor=none;align=left;verticalAlign=top;spacingLeft=4;spacingRight=4;overflow=hidden;rotatable=0;points=[[0,0.5],[1,0.5]];portConstraint=eastwest;" parent="18" vertex="1">
                    <mxGeometry y="234" width="140" height="26" as="geometry"/>
                </mxCell>
                <mxCell id="75" value="municipio: String" style="text;strokeColor=none;fillColor=none;align=left;verticalAlign=top;spacingLeft=4;spacingRight=4;overflow=hidden;rotatable=0;points=[[0,0.5],[1,0.5]];portConstraint=eastwest;" parent="18" vertex="1">
                    <mxGeometry y="260" width="140" height="26" as="geometry"/>
                </mxCell>
                <mxCell id="78" value="celular: String" style="text;strokeColor=none;fillColor=none;align=left;verticalAlign=top;spacingLeft=4;spacingRight=4;overflow=hidden;rotatable=0;points=[[0,0.5],[1,0.5]];portConstraint=eastwest;" parent="18" vertex="1">
                    <mxGeometry y="286" width="140" height="26" as="geometry"/>
                </mxCell>
                <mxCell id="77" value="cep: String" style="text;strokeColor=none;fillColor=none;align=left;verticalAlign=top;spacingLeft=4;spacingRight=4;overflow=hidden;rotatable=0;points=[[0,0.5],[1,0.5]];portConstraint=eastwest;" parent="18" vertex="1">
                    <mxGeometry y="312" width="140" height="26" as="geometry"/>
                </mxCell>
                <mxCell id="76" value="uf: String" style="text;strokeColor=none;fillColor=none;align=left;verticalAlign=top;spacingLeft=4;spacingRight=4;overflow=hidden;rotatable=0;points=[[0,0.5],[1,0.5]];portConstraint=eastwest;" parent="18" vertex="1">
                    <mxGeometry y="338" width="140" height="26" as="geometry"/>
                </mxCell>
                <mxCell id="23" value="" style="endArrow=diamondThin;endFill=1;endSize=24;html=1;exitX=0.5;exitY=0;exitDx=0;exitDy=0;entryX=0.25;entryY=0;entryDx=0;entryDy=0;" parent="1" source="2" target="14" edge="1">
                    <mxGeometry width="160" relative="1" as="geometry">
                        <mxPoint x="120" y="390" as="sourcePoint"/>
                        <mxPoint x="280" y="390" as="targetPoint"/>
                        <Array as="points">
                            <mxPoint x="75" y="220"/>
                            <mxPoint x="205" y="220"/>
                        </Array>
                    </mxGeometry>
                </mxCell>
                <mxCell id="30" value="1" style="edgeLabel;html=1;align=center;verticalAlign=middle;resizable=0;points=[];" parent="23" vertex="1" connectable="0">
                    <mxGeometry x="-0.9366" y="1" relative="1" as="geometry">
                        <mxPoint x="16" as="offset"/>
                    </mxGeometry>
                </mxCell>
                <mxCell id="31" value="0..*" style="edgeLabel;html=1;align=center;verticalAlign=middle;resizable=0;points=[];" parent="23" vertex="1" connectable="0">
                    <mxGeometry x="0.7937" y="-1" relative="1" as="geometry">
                        <mxPoint x="16" as="offset"/>
                    </mxGeometry>
                </mxCell>
                <mxCell id="25" value="" style="endArrow=diamondThin;endFill=1;endSize=24;html=1;exitX=0.75;exitY=0;exitDx=0;exitDy=0;entryX=0.75;entryY=0;entryDx=0;entryDy=0;" parent="1" source="6" target="_1IkSQqu3qJlrTT_pfzR-81" edge="1">
                    <mxGeometry width="160" relative="1" as="geometry">
                        <mxPoint x="430" y="360" as="sourcePoint"/>
                        <mxPoint x="590" y="360" as="targetPoint"/>
                        <Array as="points">
                            <mxPoint x="405" y="190"/>
                            <mxPoint x="480" y="190"/>
                            <mxPoint x="480" y="520"/>
                            <mxPoint x="480" y="510"/>
                            <mxPoint x="480" y="530"/>
                        </Array>
                    </mxGeometry>
                </mxCell>
                <mxCell id="34" value="1..*" style="edgeLabel;html=1;align=center;verticalAlign=middle;resizable=0;points=[];" parent="25" vertex="1" connectable="0">
                    <mxGeometry x="-0.8827" relative="1" as="geometry">
                        <mxPoint x="5" y="10" as="offset"/>
                    </mxGeometry>
                </mxCell>
                <mxCell id="35" value="0..*" style="edgeLabel;html=1;align=center;verticalAlign=middle;resizable=0;points=[];" parent="25" vertex="1" connectable="0">
                    <mxGeometry x="0.8603" y="-2" relative="1" as="geometry">
                        <mxPoint x="17" y="22" as="offset"/>
                    </mxGeometry>
                </mxCell>
                <mxCell id="26" value="" style="endArrow=diamondThin;endFill=1;endSize=24;html=1;entryX=0.25;entryY=0;entryDx=0;entryDy=0;exitX=0.25;exitY=0;exitDx=0;exitDy=0;" parent="1" source="10" target="6" edge="1">
                    <mxGeometry width="160" relative="1" as="geometry">
                        <mxPoint x="120" y="130" as="sourcePoint"/>
                        <mxPoint x="280" y="130" as="targetPoint"/>
                        <Array as="points">
                            <mxPoint x="335" y="20"/>
                            <mxPoint x="280" y="20"/>
                            <mxPoint x="280" y="170"/>
                            <mxPoint x="335" y="170"/>
                        </Array>
                    </mxGeometry>
                </mxCell>
                <mxCell id="32" value="0..*" style="edgeLabel;html=1;align=center;verticalAlign=middle;resizable=0;points=[];" parent="26" vertex="1" connectable="0">
                    <mxGeometry x="0.8069" relative="1" as="geometry">
                        <mxPoint x="-25" y="11" as="offset"/>
                    </mxGeometry>
                </mxCell>
                <mxCell id="37" value="1" style="edgeLabel;html=1;align=center;verticalAlign=middle;resizable=0;points=[];" parent="26" vertex="1" connectable="0">
                    <mxGeometry x="-0.8179" relative="1" as="geometry">
                        <mxPoint y="10" as="offset"/>
                    </mxGeometry>
                </mxCell>
                <mxCell id="27" value="" style="endArrow=diamondThin;endFill=1;endSize=24;html=1;entryX=0.5;entryY=0;entryDx=0;entryDy=0;exitX=0.5;exitY=0;exitDx=0;exitDy=0;" parent="1" source="18" target="6" edge="1">
                    <mxGeometry width="160" relative="1" as="geometry">
                        <mxPoint x="320" y="190" as="sourcePoint"/>
                        <mxPoint x="480" y="190" as="targetPoint"/>
                        <Array as="points">
                            <mxPoint x="630" y="170"/>
                            <mxPoint x="370" y="170"/>
                        </Array>
                    </mxGeometry>
                </mxCell>
                <mxCell id="33" value="0..*" style="edgeLabel;html=1;align=center;verticalAlign=middle;resizable=0;points=[];" parent="27" vertex="1" connectable="0">
                    <mxGeometry x="0.6484" y="-1" relative="1" as="geometry">
                        <mxPoint y="-9" as="offset"/>
                    </mxGeometry>
                </mxCell>
                <mxCell id="36" value="1" style="edgeLabel;html=1;align=center;verticalAlign=middle;resizable=0;points=[];" parent="27" vertex="1" connectable="0">
                    <mxGeometry x="-0.9231" y="1" relative="1" as="geometry">
                        <mxPoint x="11" as="offset"/>
                    </mxGeometry>
                </mxCell>
                <mxCell id="_1IkSQqu3qJlrTT_pfzR-78" value="" style="shape=stencil(fZbdcgIhDIWfZm8zQAg/17Z9j85U606tdqz9e/tmZ0c0uJ47xP0I5JwEBl59bp8/1kNwn6fj4W39M76ctgM/DCGM++36OJ50NPDjwKvN4bh+PR6+9i/z74/n6ctp9H74nlb4nbmSKZeJCu5vngmZ6jzzNAO7cX8FVKEsBuBKrgKg9oAE8gkCbLeUhEoEQKSUDZDLeWYRKIl8MEDRmHwfyBrBG6Amyu4+kDxxMoB3jhwgYu7TVAsVkFcWCs4CTBEoF4RctKeOxHIf8IXYpikHikAIf+MNUW94AGSSaoAoFIE3AlOyeWU+p2E5S9yfQZcQILVuQOwZdJNoS9Ls3wA5u2XZTIHECqeJ9kDpSaauRiNVcAY1QhdBzeLBli5WazpkSsBLV25uRaqWRyFawTQzRRIQYirJzq5atkBqLfouwqUxLBepthWb10vrWZY6UOAeyKCCtDV625mm9gmUC4Wc3VLJMMIE1BsA2FW9JraVlQB7n3c9oMKhCLEvIM1zBPZ25/umNQ1tVEC2G+fFCC8g398O2hNQuQlVu752DBfA+q0ptnqO5JFmeuIuo9DY7KjY71UxdJV4EntifPWorW++R/dC4t7V3DlIB5cHx2bc7eb3yvX//QNFp+bHDT/+Aw==);lineShape=1;" vertex="1" parent="1">
                    <mxGeometry x="494.48913296678984" y="442.65434563930853" width="7.188522726331099" height="7.177286486703451" as="geometry"/>
                </mxCell>
                <mxCell id="_1IkSQqu3qJlrTT_pfzR-81" value="ItemVendaÂ Â Â Â " style="swimlane;fontStyle=0;childLayout=stackLayout;horizontal=1;startSize=26;fillColor=none;horizontalStack=0;resizeParent=1;resizeParentMax=0;resizeLast=0;collapsible=1;marginBottom=0;" vertex="1" parent="1">
                    <mxGeometry x="370" y="550" width="140" height="104" as="geometry"/>
                </mxCell>
                <mxCell id="_1IkSQqu3qJlrTT_pfzR-82" value="num_item Number" style="text;strokeColor=none;fillColor=none;align=left;verticalAlign=top;spacingLeft=4;spacingRight=4;overflow=hidden;rotatable=0;points=[[0,0.5],[1,0.5]];portConstraint=eastwest;" vertex="1" parent="_1IkSQqu3qJlrTT_pfzR-81">
                    <mxGeometry y="26" width="140" height="26" as="geometry"/>
                </mxCell>
                <mxCell id="_1IkSQqu3qJlrTT_pfzR-83" value="quantidade number" style="text;strokeColor=none;fillColor=none;align=left;verticalAlign=top;spacingLeft=4;spacingRight=4;overflow=hidden;rotatable=0;points=[[0,0.5],[1,0.5]];portConstraint=eastwest;" vertex="1" parent="_1IkSQqu3qJlrTT_pfzR-81">
                    <mxGeometry y="52" width="140" height="26" as="geometry"/>
                </mxCell>
                <mxCell id="_1IkSQqu3qJlrTT_pfzR-84" value="produto Produto" style="text;strokeColor=none;fillColor=none;align=left;verticalAlign=top;spacingLeft=4;spacingRight=4;overflow=hidden;rotatable=0;points=[[0,0.5],[1,0.5]];portConstraint=eastwest;" vertex="1" parent="_1IkSQqu3qJlrTT_pfzR-81">
                    <mxGeometry y="78" width="140" height="26" as="geometry"/>
                </mxCell>
                <mxCell id="_1IkSQqu3qJlrTT_pfzR-92" value="0..*" style="edgeLabel;html=1;align=center;verticalAlign=middle;resizable=0;points=[];" vertex="1" connectable="0" parent="1">
                    <mxGeometry x="501.68" y="540" as="geometry">
                        <mxPoint x="-119" as="offset"/>
                    </mxGeometry>
                </mxCell>
                <mxCell id="_1IkSQqu3qJlrTT_pfzR-93" value="1" style="edgeLabel;html=1;align=center;verticalAlign=middle;resizable=0;points=[];" vertex="1" connectable="0" parent="1">
                    <mxGeometry x="170" y="449.83000000000004" as="geometry">
                        <mxPoint x="86" y="95" as="offset"/>
                    </mxGeometry>
                </mxCell>
                <mxCell id="_1IkSQqu3qJlrTT_pfzR-95" value="" style="shape=stencil(fZbdcgIhDIWfZm8zQAg/17Z9j85U606tdqz9e/tmZ0c0uJ47xP0I5JwEBl59bp8/1kNwn6fj4W39M76ctgM/DCGM++36OJ50NPDjwKvN4bh+PR6+9i/z74/n6ctp9H74nlb4nbmSKZeJCu5vngmZ6jzzNAO7cX8FVKEsBuBKrgKg9oAE8gkCbLeUhEoEQKSUDZDLeWYRKIl8MEDRmHwfyBrBG6Amyu4+kDxxMoB3jhwgYu7TVAsVkFcWCs4CTBEoF4RctKeOxHIf8IXYpikHikAIf+MNUW94AGSSaoAoFIE3AlOyeWU+p2E5S9yfQZcQILVuQOwZdJNoS9Ls3wA5u2XZTIHECqeJ9kDpSaauRiNVcAY1QhdBzeLBli5WazpkSsBLV25uRaqWRyFawTQzRRIQYirJzq5atkBqLfouwqUxLBepthWb10vrWZY6UOAeyKCCtDV625mm9gmUC4Wc3VLJMMIE1BsA2FW9JraVlQB7n3c9oMKhCLEvIM1zBPZ25/umNQ1tVEC2G+fFCC8g398O2hNQuQlVu752DBfA+q0ptnqO5JFmeuIuo9DY7KjY71UxdJV4EntifPWorW++R/dC4t7V3DlIB5cHx2bc7eb3yvX//QNFp+bHDT/+Aw==);lineShape=1;" vertex="1" parent="1">
                    <mxGeometry x="354.18142187904914" y="496.80818709814275" width="7.188522726331099" height="7.177286486703451" as="geometry"/>
                </mxCell>
                <mxCell id="_1IkSQqu3qJlrTT_pfzR-96" value="" style="shape=stencil(lZzbkt3GDUW/Zl5Zfb88O85/uMpyNBVFcslKYv990BnzcLhxuGi9yWPgsNndADY2AL7kH377+NOvH15S+O3b1y///PDf15+/fXzJf3tJ6fXzxw9fX7/Zv17yjy/5h1++fP3wj69f/v3557f//vWnJbn+9a8v/1m/8PubXk5bnUsrhT/+/MtWwv//8Pc3+U+vn9/Lxy1Xle8gH/afO+T/fOBT+TS2rvKjgXzfQjrJly0OkK/7cg95Wv/xc4f8gP1JaevtJF+3nEA+buEs37ZI7xu2mES+52v5OLdwXn/fMux/7NssJ/mxxQLy9niVn7D+WLcWT/IT9zOWrZ7XH8PWKijkrZ0vUIxbjaCQtna2APtLpleI28hnhbwleoKd8dlm7K0CPSFsOajChFs6t3q+RLbNJD+2cb5EduwBbsVwLzBwi/qWZEvnbhZP5dtWz5fIzCLBravbOK9nmR3Kx7PRmxUn2J+il9R+ocMJm5M434jllsALZTUa2+FMXnS/Xw+nGPYTf+4ltn42GnPznbyWc9J238hrqdPKduLkhbYp6x9bJat365/bJKPfT+fhpCNGGZOXoGFRCdc/zvtT6r7Cq/eVoDHQ4NOWzr9fwx5mr87r/Ps1cVTV/awcxfIWz/tZ2418EfmB68m7C38EsbAF2P+sQakl9LjmXs/23uwv4B/KHuMe8gYTYP9N/uzf2gOGXMnL+w60x+KCtt0Hft+z/+lx9/BX8uf19Hz3++f97GWPgVfy5/3pDe+z25/e8b6Z95b9mVsC+zIQcf79EfaIcxEvBFSOtJ/4hXwT+bx7vIt4p79fMV60/TY+5Nu+AxfxV+x3dLwPfWvn8x0DUbdFq7O9TIOlcF5TQeuMiIoNAMmFm2lf4hXEEg86M+PQpFdi1v2ZV0A0nW1sNvRZBsF0k+wYKSi1rbknTMLeQ81+9v2ZV8lAK6pA2YMFsnI25Dnwoi5k01UhUWRqbkmDE6apWMIUIviWnBUcr5cG4zQsU9y20tUwsCHh2A4ukburWxV7qDvif64wtyK7VPAJhgcEgZg9JHhCfSQM7yyOXKpF+CLbGvd9e+7DLITJkgKCqGYxzClQ1G9Zw8iYmBY0F8dNgeKUwQIB4qYQaEnNPWGgIzMgkYoqZNrW4WKDpfBgcW2qiZoCgTXDEimpAnEs3WXUg0kKQxO6rQ0vX/cBt2KCafhjZlXACDo0Ao2y79tzhamYyhTI8xkEEXc/mHobUU10PPKA5wrZPSGiq1yvKNsa9rN/rmBe4xx2bRsinPS6OYJU+baORzR4ByUJyphBijNelwWWNIPGB7uOFKfNz1V5h0f+81zh4UkfCgnTzeWrRYH5kAV2BKAHVihbE9pxYgY/HZoxx0NEpSlIBFo5Eu1SUybavC25yulQ7sryCIV25RLbI1G/Uphnm64PBPVcYSjQrQwdDuzyUGBmYQ5NVSsT2EtBuIWM3nu9tCTzAaOoKQjjWgZmz9PFuMKk92yOfzGcSU944K93hBARfuu2npe0GCe2B3npPHaTulKQ/MFwJmGNWZRmzg2peFPIZyewWDz2GkKjGlbGd8jK6+aEuHUmV80JmJaZgkTRxW3TwUVFlenGL1nYFYWG0MECyjy7ylXSIXJ96uVbfAiFrKER6KgiXUXRcT4HS9QaQYeuASUFjEDD5aJxIuO8kICUIAYe3KiuxtH5HYor7LQdBV7BH8kfIiMBU4iu7EK1JsNf4shi5idEJa4OHuIKJAoyjhF968JfohAQVS78JXkcFggNfgmXPPbc9AqqS1jveGoGvhRobJ3W47jqhhF3MaPn9dSt0HqCcmNMfTaXqpe7/C1qAX5Q+tb2yswhT6WUBaK0YE/+0TCUrD8xlZnVjhPmei1pQT3txbYrFiCK69pR3BXN4OXhPhiiEwvjUkp17FBCkzc8p/EGY2zNLtzs2fQV06O1TWS3alQcciMfNOazfJmasN3IOy75Rr5rA8qNfPPnhfJFIQvfZ0Oiwe0PcX9RI2tCwF9cBEhcihuuNo75sqHQ6uTBnxsIdedLpYLsKLO0h+Xn8kWDcNo5hit6N+jvU+naEGtwv0+lx6BkVkIEa+GzOH8L923VRrThiUopq0FK/QmB/PSotL/zJyyfdT+JGDB58ScRebIlL70kXCAYOxzZ5QPeT5MXajAgSbb6lVSemJM0FUoHzMpMXmBrQCJ+1Tfc+qla4eJdQP9j8mK/EemAJd9FnuJXDv7+ECOYgxIajIhXv5jef/InR/542Bfhw3W+iq8i+JPVSzX098neh+JhjhdHZ9Ahn/k+a06C/u2Z/RKeT49yxHHfiENb76vyNw2gI4o8UQzLfxaRxwbK75T3/j8gyejjy01ri4tfAVtVfHwM2Frk42/g1jQX37m07/FDQHvx+IT9p8c/fF4eXwX0bx6/cZHR48OA8dHjz8C1YYdvb+Qdfr6Rd/ic5T3+v5F3+cWNvMtfbuSz9kYFrlM7GjVg4a82JeMC9iNUh5cCtsZWF18C8i0rn9X9xzK7q9Yy/rF83K2fiD7L94vuP+b7RfmHgK2crSr+iViCbN3HL8r321B/xTWgNne4ecRf5LuixzPUit197y1X413vZOFSeXE1LIxfvel+Vm4d65pfNKza9bHDnb/IBzr6fTDr6/Z/4noWhyv4NmACM7ID0HEbpFAcIuOUczUDCpeeuZ2/KmaKfMijaQNSbFyi6MraRe54XSUKVw8gnLKKILKkm1YCB+RuIrEpyNRD4o6lGRS6LqwOLz2jnvTROXulMCUZ4MbjmdR6zNyILp7Z0bnckDf9LMPEXmVT0Gb9iMMkq5XATSdgCduFBAPNWCRv+tKGgomEWQVmWVLDqsAqYYtCR68xXYttntiLM7teDUPCRPRPB0QKN4FPl4keWPhKQaCUgWHCOtNVQg0NDzoHN8hUbnZpasdSZbpkunBeI/LBc2rn2EKg/NLS+FILIoYYgqaM9THg9FcfwfM3T15icCPL1KNunNaZgjYURe6icnWyxkS73T7pSzGoiA1FjglZHUhscpKqNW7WNLchtZ02kYwyTybFxx54sK9qtm/4kuDzLJqudebPLUBIftELewEHWA+IeRXkZDqoM9iYjqLs3HC6oID0yw1036tF1g2QEKs5fNU74EkPV/Y2oIkjlkXzqsGFg9UtOlUBYWXUMGrPxN5L17F912Xrei9t38h9d9dEPhpmn901sthREl3WXWPX6BhG7TJX6UUe6GYsIRPvPQb21vTonjCRIuxuGmY1uRJnMFwf70QnYI5RBxJuWu2b6/4PiOGOgbp3CoSlfR+CKVChazUiyKxKxKGt1YmQVIEOzkKglHJWuxrV/ofGhzXGxOSTpFnmnivs0urllLGNgnSP4Skpj1mIoVG44voXVtQjgjS6J/B8wWKQ5S5x/2h2FMicdzU47XGa2Ni1OAz3BOqCWXNP55d+h+qea0St68ybGWdXWJ4T8b1l6N0pUKtKbEqFmAJ+CaHsxMc7BZyJcx9nsKPGJSVNwSe3d8bontDxusagJ7emvXCWMTkDwr5FDQ8rw6Z44ob6uGHFuwyeraz6rYV5U4BxqGEg8inqhm/Gi7LmuaOx9WsT/5rkoYKZesjBs+DuAy6DG3SSAu7BkD652e6JgTCq7+oDsxiH8m5mr6MCpJvZbjeFdDM7nrS+2TnhTm5CiAucSZmYNRGH+y/py83sflKk0+rd78sYS+EGAsXMhksod0laHzwGK6/2U7iCmy/06P2pfbegC3lJdGpF3jYqgq/cYBocdREwZASFH4UHioP2MxT+dk7QfuOSsSDhyJ1jXPhK3k2iEAnh+n/ywIJ90HpNrggx3f5nnh+Krp7FIx/Ov60ON/QP2n/ICV3ScdfEYzRZ/YlFNOKlspvF4P0pbtgjcgOxgrKbhhL3bYn4SLIv5LV21JBG6GpfsfKgx+7NHvIFP1IwXT03Y4EzBlctSzjrZQpCJMaIIxLRff7HfoJMJroqDY8N2hsq5kCeJbqeho49uNHPYuIRR1ftY8IuuiHdyi5iau7DDHl68hFBhGRxT1sOebpCC0N8Tw/0snnXk0cuyM3+MW+Q3LxjxLJJ8rVT7KHMwY0hYZ6Xo6uRYw1xfVRSLAyZmOzGBCOyTzm5yS5eT3bfr8PC7xHhDnkK8dnFjIj1G5N3Mw/YY5f9zAN+Li77HlwKMWv9ej+poyG7mavMPYVJY3zmlM1/vw5TmO/+iOmtvP3j+GLqL6+fPr19cPX9/9cvrNqf3r7Omn/8Hw==);lineShape=1;" vertex="1" parent="1">
                    <mxGeometry x="139.2724693677278" y="466.0459810510756" width="420.7755107058123" height="303.40574187470827" as="geometry"/>
                </mxCell>
            </root>
        </mxGraphModel>
    </diagram>
</mxfile>